<?xml version="1.0" encoding="UTF-8"?>
<svg xmlns="http://www.w3.org/2000/svg" xmlns:xlink="http://www.w3.org/1999/xlink" style="display:none">
  <defs>

    <!-- Home / Dashboard -->
    <symbol id="icon-home" viewBox="0 0 24 24">
      <path d="M3 9l9-7 9 7v11a2 2 0 0 1-2 2H5a2 2 0 0 1-2-2z"
            fill="none" stroke="currentColor" stroke-width="2"
            stroke-linecap="round" stroke-linejoin="round"/>
      <polyline points="9 22 9 12 15 12 15 22"
                fill="none" stroke="currentColor" stroke-width="2"
                stroke-linecap="round" stroke-linejoin="round"/>
    </symbol>

    <!-- Bar-chart (Admin dashboard) -->
    <symbol id="icon-bar-chart" viewBox="0 0 24 24">
      <line x1="18" y1="20" x2="18" y2="10" stroke="currentColor" stroke-width="2" stroke-linecap="round"/>
      <line x1="12" y1="20" x2="12" y2="4"  stroke="currentColor" stroke-width="2" stroke-linecap="round"/>
      <line x1="6"  y1="20" x2="6"  y2="14" stroke="currentColor" stroke-width="2" stroke-linecap="round"/>
      <line x1="2"  y1="20" x2="22" y2="20" stroke="currentColor" stroke-width="2" stroke-linecap="round"/>
    </symbol>

    <!-- Map / Trails -->
    <symbol id="icon-trails" viewBox="0 0 24 24">
      <polygon points="1 6 1 22 8 18 16 22 23 18 23 2 16 6 8 2 1 6"
               fill="none" stroke="currentColor" stroke-width="2"
               stroke-linecap="round" stroke-linejoin="round"/>
      <line x1="8" y1="2" x2="8" y2="18" stroke="currentColor" stroke-width="2" stroke-linecap="round"/>
      <line x1="16" y1="6" x2="16" y2="22" stroke="currentColor" stroke-width="2" stroke-linecap="round"/>
    </symbol>

    <!-- Award / Certificates -->
    <symbol id="icon-certificates" viewBox="0 0 24 24">
      <circle cx="12" cy="8" r="6"
              fill="none" stroke="currentColor" stroke-width="2"
              stroke-linecap="round" stroke-linejoin="round"/>
      <path d="M8.56 13.45L7 23l5-3 5 3-1.56-9.55"
            fill="none" stroke="currentColor" stroke-width="2"
            stroke-linecap="round" stroke-linejoin="round"/>
    </symbol>

    <!-- Book-open / Catalog -->
    <symbol id="icon-catalog" viewBox="0 0 24 24">
      <path d="M2 3h6a4 4 0 0 1 4 4v14a3 3 0 0 0-3-3H2z"
            fill="none" stroke="currentColor" stroke-width="2"
            stroke-linecap="round" stroke-linejoin="round"/>
      <path d="M22 3h-6a4 4 0 0 0-4 4v14a3 3 0 0 1 3-3h7z"
            fill="none" stroke="currentColor" stroke-width="2"
            stroke-linecap="round" stroke-linejoin="round"/>
    </symbol>

    <!-- Star / Points -->
    <symbol id="icon-points" viewBox="0 0 24 24">
      <polygon points="12 2 15.09 8.26 22 9.27 17 14.14 18.18 21.02 12 17.77 5.82 21.02 7 14.14 2 9.27 8.91 8.26 12 2"
               fill="none" stroke="currentColor" stroke-width="2"
               stroke-linecap="round" stroke-linejoin="round"/>
    </symbol>

    <!-- Trophy / Achievements -->
    <symbol id="icon-achievements" viewBox="0 0 24 24">
      <path d="M6 9H3.5a2.5 2.5 0 0 1 0-5H6"
            fill="none" stroke="currentColor" stroke-width="2"
            stroke-linecap="round" stroke-linejoin="round"/>
      <path d="M18 9h2.5a2.5 2.5 0 0 0 0-5H18"
            fill="none" stroke="currentColor" stroke-width="2"
            stroke-linecap="round" stroke-linejoin="round"/>
      <path d="M6 4h12v11a6 6 0 0 1-12 0z"
            fill="none" stroke="currentColor" stroke-width="2"
            stroke-linecap="round" stroke-linejoin="round"/>
      <line x1="12" y1="21" x2="12" y2="15" stroke="currentColor" stroke-width="2" stroke-linecap="round"/>
      <line x1="9" y1="21" x2="15" y2="21" stroke="currentColor" stroke-width="2" stroke-linecap="round"/>
    </symbol>

    <!-- Lock -->
    <symbol id="icon-lock" viewBox="0 0 24 24">
      <rect x="3" y="11" width="18" height="11" rx="2" ry="2"
            fill="none" stroke="currentColor" stroke-width="2"
            stroke-linecap="round" stroke-linejoin="round"/>
      <path d="M7 11V7a5 5 0 0 1 10 0v4"
            fill="none" stroke="currentColor" stroke-width="2"
            stroke-linecap="round" stroke-linejoin="round"/>
    </symbol>

    <!-- Unlock -->
    <symbol id="icon-unlock" viewBox="0 0 24 24">
      <rect x="3" y="11" width="18" height="11" rx="2" ry="2"
            fill="none" stroke="currentColor" stroke-width="2"
            stroke-linecap="round" stroke-linejoin="round"/>
      <path d="M7 11V7a5 5 0 0 1 9.9-1"
            fill="none" stroke="currentColor" stroke-width="2"
            stroke-linecap="round" stroke-linejoin="round"/>
    </symbol>

    <!-- Play -->
    <symbol id="icon-play" viewBox="0 0 24 24">
      <polygon points="5 3 19 12 5 21 5 3"
               fill="none" stroke="currentColor" stroke-width="2"
               stroke-linecap="round" stroke-linejoin="round"/>
    </symbol>

    <!-- Document / File-text -->
    <symbol id="icon-document" viewBox="0 0 24 24">
      <path d="M14 2H6a2 2 0 0 0-2 2v16a2 2 0 0 0 2 2h12a2 2 0 0 0 2-2V8z"
            fill="none" stroke="currentColor" stroke-width="2"
            stroke-linecap="round" stroke-linejoin="round"/>
      <polyline points="14 2 14 8 20 8"
                fill="none" stroke="currentColor" stroke-width="2"
                stroke-linecap="round" stroke-linejoin="round"/>
      <line x1="16" y1="13" x2="8" y2="13" stroke="currentColor" stroke-width="2" stroke-linecap="round"/>
      <line x1="16" y1="17" x2="8" y2="17" stroke="currentColor" stroke-width="2" stroke-linecap="round"/>
      <polyline points="10 9 9 9 8 9" fill="none" stroke="currentColor" stroke-width="2" stroke-linecap="round"/>
    </symbol>

    <!-- Check-circle / Done -->
    <symbol id="icon-checkmark" viewBox="0 0 24 24">
      <path d="M22 11.08V12a10 10 0 1 1-5.93-9.14"
            fill="none" stroke="currentColor" stroke-width="2"
            stroke-linecap="round" stroke-linejoin="round"/>
      <polyline points="22 4 12 14.01 9 11.01"
                fill="none" stroke="currentColor" stroke-width="2"
                stroke-linecap="round" stroke-linejoin="round"/>
    </symbol>

    <!-- X-circle / Error -->
    <symbol id="icon-x" viewBox="0 0 24 24">
      <circle cx="12" cy="12" r="10"
              fill="none" stroke="currentColor" stroke-width="2"
              stroke-linecap="round" stroke-linejoin="round"/>
      <line x1="15" y1="9" x2="9" y2="15" stroke="currentColor" stroke-width="2" stroke-linecap="round"/>
      <line x1="9" y1="9" x2="15" y2="15" stroke="currentColor" stroke-width="2" stroke-linecap="round"/>
    </symbol>

    <!-- Message-circle / Chat -->
    <symbol id="icon-chat" viewBox="0 0 24 24">
      <path d="M21 15a2 2 0 0 1-2 2H7l-4 4V5a2 2 0 0 1 2-2h14a2 2 0 0 1 2 2z"
            fill="none" stroke="currentColor" stroke-width="2"
            stroke-linecap="round" stroke-linejoin="round"/>
    </symbol>

    <!-- Bell / Notifications -->
    <symbol id="icon-bell" viewBox="0 0 24 24">
      <path d="M18 8A6 6 0 0 0 6 8c0 7-3 9-3 9h18s-3-2-3-9"
            fill="none" stroke="currentColor" stroke-width="2"
            stroke-linecap="round" stroke-linejoin="round"/>
      <path d="M13.73 21a2 2 0 0 1-3.46 0"
            fill="none" stroke="currentColor" stroke-width="2"
            stroke-linecap="round" stroke-linejoin="round"/>
    </symbol>

    <!-- Zap / Fire / Streak -->
    <symbol id="icon-fire" viewBox="0 0 24 24">
      <polygon points="13 2 3 14 12 14 11 22 21 10 12 10 13 2"
               fill="none" stroke="currentColor" stroke-width="2"
               stroke-linecap="round" stroke-linejoin="round"/>
    </symbol>

    <!-- Cross / Faith -->
    <symbol id="icon-cross" viewBox="0 0 24 24">
      <line x1="12" y1="3" x2="12" y2="21" stroke="currentColor" stroke-width="2.5" stroke-linecap="round"/>
      <line x1="5" y1="9" x2="19" y2="9" stroke="currentColor" stroke-width="2.5" stroke-linecap="round"/>
    </symbol>

    <!-- Trending-up / Growth -->
    <symbol id="icon-hands" viewBox="0 0 24 24">
      <polyline points="23 6 13.5 15.5 8.5 10.5 1 18"
                fill="none" stroke="currentColor" stroke-width="2"
                stroke-linecap="round" stroke-linejoin="round"/>
      <polyline points="17 6 23 6 23 12"
                fill="none" stroke="currentColor" stroke-width="2"
                stroke-linecap="round" stroke-linejoin="round"/>
    </symbol>

    <!-- Book / Bible -->
    <symbol id="icon-book" viewBox="0 0 24 24">
      <path d="M4 19.5A2.5 2.5 0 0 1 6.5 17H20"
            fill="none" stroke="currentColor" stroke-width="2"
            stroke-linecap="round" stroke-linejoin="round"/>
      <path d="M6.5 2H20v20H6.5A2.5 2.5 0 0 1 4 19.5v-15A2.5 2.5 0 0 1 6.5 2z"
            fill="none" stroke="currentColor" stroke-width="2"
            stroke-linecap="round" stroke-linejoin="round"/>
    </symbol>

    <!-- Dollar-sign / Coins -->
    <symbol id="icon-coins" viewBox="0 0 24 24">
      <line x1="12" y1="1" x2="12" y2="23" stroke="currentColor" stroke-width="2" stroke-linecap="round"/>
      <path d="M17 5H9.5a3.5 3.5 0 0 0 0 7h5a3.5 3.5 0 0 1 0 7H6"
            fill="none" stroke="currentColor" stroke-width="2"
            stroke-linecap="round" stroke-linejoin="round"/>
    </symbol>

    <!-- Seedling / Beginner -->
    <symbol id="icon-seedling" viewBox="0 0 24 24">
      <path d="M12 22V12"
            stroke="currentColor" stroke-width="2" stroke-linecap="round"/>
      <path d="M12 12C12 12 7 10 7 5a5 5 0 0 1 10 0c0 5-5 7-5 7z"
            fill="none" stroke="currentColor" stroke-width="2"
            stroke-linecap="round" stroke-linejoin="round"/>
      <path d="M12 16c0 0-3 1-5 4"
            fill="none" stroke="currentColor" stroke-width="2"
            stroke-linecap="round"/>
    </symbol>

    <!-- Menu / Hamburger -->
    <symbol id="icon-menu" viewBox="0 0 24 24">
      <line x1="3" y1="6"  x2="21" y2="6"  stroke="currentColor" stroke-width="2" stroke-linecap="round"/>
      <line x1="3" y1="12" x2="21" y2="12" stroke="currentColor" stroke-width="2" stroke-linecap="round"/>
      <line x1="3" y1="18" x2="21" y2="18" stroke="currentColor" stroke-width="2" stroke-linecap="round"/>
    </symbol>

    <!-- User / Profile -->
    <symbol id="icon-user" viewBox="0 0 24 24">
      <path d="M20 21v-2a4 4 0 0 0-4-4H8a4 4 0 0 0-4 4v2"
            fill="none" stroke="currentColor" stroke-width="2"
            stroke-linecap="round" stroke-linejoin="round"/>
      <circle cx="12" cy="7" r="4"
              fill="none" stroke="currentColor" stroke-width="2"
              stroke-linecap="round" stroke-linejoin="round"/>
    </symbol>

    <!-- Eye / Show -->
    <symbol id="icon-eye" viewBox="0 0 24 24">
      <path d="M1 12s4-8 11-8 11 8 11 8-4 8-11 8-11-8-11-8z"
            fill="none" stroke="currentColor" stroke-width="2"
            stroke-linecap="round" stroke-linejoin="round"/>
      <circle cx="12" cy="12" r="3"
              fill="none" stroke="currentColor" stroke-width="2"/>
    </symbol>

    <!-- Eye-off / Hide -->
    <symbol id="icon-eye-off" viewBox="0 0 24 24">
      <path d="M17.94 17.94A10.07 10.07 0 0 1 12 20c-7 0-11-8-11-8a18.45 18.45 0 0 1 5.06-5.94M9.9 4.24A9.12 9.12 0 0 1 12 4c7 0 11 8 11 8a18.5 18.5 0 0 1-2.16 3.19m-6.72-1.07a3 3 0 1 1-4.24-4.24"
            fill="none" stroke="currentColor" stroke-width="2"
            stroke-linecap="round" stroke-linejoin="round"/>
      <line x1="1" y1="1" x2="23" y2="23"
            stroke="currentColor" stroke-width="2" stroke-linecap="round"/>
    </symbol>

    <!-- Arrow-right -->
    <symbol id="icon-arrow-right" viewBox="0 0 24 24">
      <line x1="5" y1="12" x2="19" y2="12"
            stroke="currentColor" stroke-width="2" stroke-linecap="round"/>
      <polyline points="12 5 19 12 12 19"
                fill="none" stroke="currentColor" stroke-width="2"
                stroke-linecap="round" stroke-linejoin="round"/>
    </symbol>

    <!-- Tag / Categories -->
    <symbol id="icon-tag" viewBox="0 0 24 24">
      <path d="M20.59 13.41l-7.17 7.17a2 2 0 0 1-2.83 0L2 12V2h10l8.59 8.59a2 2 0 0 1 0 2.82z"
            fill="none" stroke="currentColor" stroke-width="2"
            stroke-linecap="round" stroke-linejoin="round"/>
      <line x1="7" y1="7" x2="7.01" y2="7"
            stroke="currentColor" stroke-width="2" stroke-linecap="round"/>
    </symbol>

    <!-- Plus / Add -->
    <symbol id="icon-plus" viewBox="0 0 24 24">
      <line x1="12" y1="5" x2="12" y2="19" stroke="currentColor" stroke-width="2" stroke-linecap="round"/>
      <line x1="5" y1="12" x2="19" y2="12" stroke="currentColor" stroke-width="2" stroke-linecap="round"/>
    </symbol>

    <!-- Users / Group -->
    <symbol id="icon-users" viewBox="0 0 24 24">
      <path d="M17 21v-2a4 4 0 0 0-4-4H5a4 4 0 0 0-4 4v2"
            fill="none" stroke="currentColor" stroke-width="2"
            stroke-linecap="round" stroke-linejoin="round"/>
      <circle cx="9" cy="7" r="4"
              fill="none" stroke="currentColor" stroke-width="2"
              stroke-linecap="round" stroke-linejoin="round"/>
      <path d="M23 21v-2a4 4 0 0 0-3-3.87"
            fill="none" stroke="currentColor" stroke-width="2"
            stroke-linecap="round" stroke-linejoin="round"/>
      <path d="M16 3.13a4 4 0 0 1 0 7.75"
            fill="none" stroke="currentColor" stroke-width="2"
            stroke-linecap="round" stroke-linejoin="round"/>
    </symbol>

    <!-- Pencil / Edit -->
    <symbol id="icon-edit" viewBox="0 0 24 24">
      <path d="M11 4H4a2 2 0 0 0-2 2v14a2 2 0 0 0 2 2h14a2 2 0 0 0 2-2v-7"
            fill="none" stroke="currentColor" stroke-width="2"
            stroke-linecap="round" stroke-linejoin="round"/>
      <path d="M18.5 2.5a2.121 2.121 0 0 1 3 3L12 15l-4 1 1-4 9.5-9.5z"
            fill="none" stroke="currentColor" stroke-width="2"
            stroke-linecap="round" stroke-linejoin="round"/>
    </symbol>

    <!-- Check / simple tick -->
    <symbol id="icon-check" viewBox="0 0 24 24">
      <polyline points="20 6 9 17 4 12"
                fill="none" stroke="currentColor" stroke-width="2"
                stroke-linecap="round" stroke-linejoin="round"/>
    </symbol>

    <!-- Target / Goal -->
    <symbol id="icon-target" viewBox="0 0 24 24">
      <circle cx="12" cy="12" r="10" fill="none" stroke="currentColor" stroke-width="2"/>
      <circle cx="12" cy="12" r="6"  fill="none" stroke="currentColor" stroke-width="2"/>
      <circle cx="12" cy="12" r="2"  fill="none" stroke="currentColor" stroke-width="2"/>
    </symbol>

    <!-- Download -->
    <symbol id="icon-download" viewBox="0 0 24 24">
      <path d="M21 15v4a2 2 0 0 1-2 2H5a2 2 0 0 1-2-2v-4"
            fill="none" stroke="currentColor" stroke-width="2"
            stroke-linecap="round" stroke-linejoin="round"/>
      <polyline points="7 10 12 15 17 10"
                fill="none" stroke="currentColor" stroke-width="2"
                stroke-linecap="round" stroke-linejoin="round"/>
      <line x1="12" y1="15" x2="12" y2="3"
            stroke="currentColor" stroke-width="2" stroke-linecap="round"/>
    </symbol>

    <!-- Share -->
    <symbol id="icon-share" viewBox="0 0 24 24">
      <circle cx="18" cy="5" r="3" fill="none" stroke="currentColor" stroke-width="2"/>
      <circle cx="6" cy="12" r="3" fill="none" stroke="currentColor" stroke-width="2"/>
      <circle cx="18" cy="19" r="3" fill="none" stroke="currentColor" stroke-width="2"/>
      <line x1="8.59" y1="13.51" x2="15.42" y2="17.49" stroke="currentColor" stroke-width="2" stroke-linecap="round"/>
      <line x1="15.41" y1="6.51" x2="8.59" y2="10.49" stroke="currentColor" stroke-width="2" stroke-linecap="round"/>
    </symbol>


    <!-- Target / Goal -->
    <symbol id="icon-target" viewBox="0 0 24 24">
      <circle cx="12" cy="12" r="10" fill="none" stroke="currentColor" stroke-width="2" stroke-linecap="round" stroke-linejoin="round"/>
      <circle cx="12" cy="12" r="6"  fill="none" stroke="currentColor" stroke-width="2" stroke-linecap="round" stroke-linejoin="round"/>
      <circle cx="12" cy="12" r="2"  fill="none" stroke="currentColor" stroke-width="2" stroke-linecap="round" stroke-linejoin="round"/>
    </symbol>

    <!-- Check-circle -->
    <symbol id="icon-checkmark-circle" viewBox="0 0 24 24">
      <circle cx="12" cy="12" r="10" fill="none" stroke="currentColor" stroke-width="2" stroke-linecap="round" stroke-linejoin="round"/>
      <path d="M8 12l2.5 2.5L16 9" fill="none" stroke="currentColor" stroke-width="2" stroke-linecap="round" stroke-linejoin="round"/>
    </symbol>

    <!-- X-circle -->
    <symbol id="icon-x-circle" viewBox="0 0 24 24">
      <circle cx="12" cy="12" r="10" fill="none" stroke="currentColor" stroke-width="2" stroke-linecap="round" stroke-linejoin="round"/>
      <line x1="8" y1="8" x2="16" y2="16" stroke="currentColor" stroke-width="2" stroke-linecap="round"/>
      <line x1="16" y1="8" x2="8" y2="16" stroke="currentColor" stroke-width="2" stroke-linecap="round"/>
    </symbol>

    <!-- Rocket -->
    <symbol id="icon-rocket" viewBox="0 0 24 24">
      <path d="M12 2c0 0-4 4-4 10h8c0-6-4-10-4-10z" fill="none" stroke="currentColor" stroke-width="2" stroke-linecap="round" stroke-linejoin="round"/>
      <rect x="8" y="12" width="8" height="5" rx="1" fill="none" stroke="currentColor" stroke-width="2" stroke-linecap="round" stroke-linejoin="round"/>
      <path d="M9 17l-2 4" stroke="currentColor" stroke-width="2" stroke-linecap="round"/>
      <path d="M15 17l2 4" stroke="currentColor" stroke-width="2" stroke-linecap="round"/>
      <circle cx="12" cy="9" r="1.5" fill="none" stroke="currentColor" stroke-width="1.5"/>
    </symbol>

    <!-- Play-circle -->
    <symbol id="icon-play-circle" viewBox="0 0 24 24">
      <circle cx="12" cy="12" r="10" fill="none" stroke="currentColor" stroke-width="2" stroke-linecap="round" stroke-linejoin="round"/>
      <polygon points="10 8 16 12 10 16 10 8" fill="none" stroke="currentColor" stroke-width="2" stroke-linecap="round" stroke-linejoin="round"/>
    </symbol>

    <!-- Document-text -->
    <symbol id="icon-document-text" viewBox="0 0 24 24">
      <path d="M14 2H6a2 2 0 0 0-2 2v16a2 2 0 0 0 2 2h12a2 2 0 0 0 2-2V8z" fill="none" stroke="currentColor" stroke-width="2" stroke-linecap="round" stroke-linejoin="round"/>
      <polyline points="14 2 14 8 20 8" fill="none" stroke="currentColor" stroke-width="2" stroke-linecap="round" stroke-linejoin="round"/>
      <line x1="8" y1="13" x2="16" y2="13" stroke="currentColor" stroke-width="2" stroke-linecap="round"/>
      <line x1="8" y1="17" x2="16" y2="17" stroke="currentColor" stroke-width="2" stroke-linecap="round"/>
    </symbol>

    <!-- File -->
    <symbol id="icon-file" viewBox="0 0 24 24">
      <path d="M13 2H6a2 2 0 0 0-2 2v16a2 2 0 0 0 2 2h12a2 2 0 0 0 2-2V9z" fill="none" stroke="currentColor" stroke-width="2" stroke-linecap="round" stroke-linejoin="round"/>
      <polyline points="13 2 13 9 20 9" fill="none" stroke="currentColor" stroke-width="2" stroke-linecap="round" stroke-linejoin="round"/>
    </symbol>

    <!-- Message / Chat bubble -->
    <symbol id="icon-message" viewBox="0 0 24 24">
      <path d="M21 15a2 2 0 0 1-2 2H7l-4 4V5a2 2 0 0 1 2-2h14a2 2 0 0 1 2 2z" fill="none" stroke="currentColor" stroke-width="2" stroke-linecap="round" stroke-linejoin="round"/>
    </symbol>

    <!-- Chevron-right -->
    <symbol id="icon-chevron-right" viewBox="0 0 24 24">
      <polyline points="9 18 15 12 9 6" fill="none" stroke="currentColor" stroke-width="2" stroke-linecap="round" stroke-linejoin="round"/>
    </symbol>

    <!-- Chevron-left -->
    <symbol id="icon-chevron-left" viewBox="0 0 24 24">
      <polyline points="15 18 9 12 15 6" fill="none" stroke="currentColor" stroke-width="2" stroke-linecap="round" stroke-linejoin="round"/>
    </symbol>

    <!-- Cross-light (faith/teologia) -->
    <symbol id="icon-cross-light" viewBox="0 0 24 24">
      <line x1="12" y1="3" x2="12" y2="21" stroke="currentColor" stroke-width="2.5" stroke-linecap="round"/>
      <line x1="5" y1="9" x2="19" y2="9" stroke="currentColor" stroke-width="2.5" stroke-linecap="round"/>
    </symbol>

    <!-- Hands-pray (discipulado/crescimento) -->
    <symbol id="icon-hands-pray" viewBox="0 0 24 24">
      <path d="M9 11V6a2 2 0 0 1 2-2h2a2 2 0 0 1 2 2v5" fill="none" stroke="currentColor" stroke-width="2" stroke-linecap="round" stroke-linejoin="round"/>
      <path d="M5 11h14l-1 8a2 2 0 0 1-2 2H8a2 2 0 0 1-2-2z" fill="none" stroke="currentColor" stroke-width="2" stroke-linecap="round" stroke-linejoin="round"/>
      <path d="M9 11h6" stroke="currentColor" stroke-width="2" stroke-linecap="round"/>
    </symbol>

    <!-- Graduation-cap (formação) -->
    <symbol id="icon-graduation-cap" viewBox="0 0 24 24">
      <polyline points="2 12 12 6 22 12 12 18 2 12" fill="none" stroke="currentColor" stroke-width="2" stroke-linecap="round" stroke-linejoin="round"/>
      <path d="M12 18v4" stroke="currentColor" stroke-width="2" stroke-linecap="round"/>
      <path d="M7 14.5v3a5 5 0 0 0 10 0v-3" fill="none" stroke="currentColor" stroke-width="2" stroke-linecap="round" stroke-linejoin="round"/>
    </symbol>

    <!-- Wallet (prática/serviço) -->
    <symbol id="icon-wallet" viewBox="0 0 24 24">
      <rect x="2" y="5" width="20" height="14" rx="2" fill="none" stroke="currentColor" stroke-width="2" stroke-linecap="round" stroke-linejoin="round"/>
      <line x1="2" y1="10" x2="22" y2="10" stroke="currentColor" stroke-width="2" stroke-linecap="round"/>
      <circle cx="17" cy="15" r="1" fill="currentColor"/>
    </symbol>

    <!-- Books (catalog/multiple) -->
    <symbol id="icon-books" viewBox="0 0 24 24">
      <path d="M4 19.5A2.5 2.5 0 0 1 6.5 17H20" fill="none" stroke="currentColor" stroke-width="2" stroke-linecap="round" stroke-linejoin="round"/>
      <path d="M6.5 2H20v20H6.5A2.5 2.5 0 0 1 4 19.5v-15A2.5 2.5 0 0 1 6.5 2z" fill="none" stroke="currentColor" stroke-width="2" stroke-linecap="round" stroke-linejoin="round"/>
      <line x1="8" y1="7" x2="16" y2="7" stroke="currentColor" stroke-width="2" stroke-linecap="round"/>
      <line x1="8" y1="11" x2="14" y2="11" stroke="currentColor" stroke-width="2" stroke-linecap="round"/>
    </symbol>

    <!-- Clock -->
    <symbol id="icon-clock" viewBox="0 0 24 24">
      <circle cx="12" cy="12" r="10" fill="none" stroke="currentColor" stroke-width="2" stroke-linecap="round" stroke-linejoin="round"/>
      <polyline points="12 6 12 12 16 14" fill="none" stroke="currentColor" stroke-width="2" stroke-linecap="round" stroke-linejoin="round"/>
    </symbol>

    <!-- Lightbulb -->
    <symbol id="icon-lightbulb" viewBox="0 0 24 24">
      <line x1="9" y1="18" x2="15" y2="18" stroke="currentColor" stroke-width="2" stroke-linecap="round"/>
      <line x1="10" y1="22" x2="14" y2="22" stroke="currentColor" stroke-width="2" stroke-linecap="round"/>
      <path d="M12 2a7 7 0 0 1 7 7c0 3-1.5 4.5-2.5 5.5H9.5C8.5 13.5 7 12 7 9a7 7 0 0 1 5-6.7V2z" fill="none" stroke="currentColor" stroke-width="2" stroke-linecap="round" stroke-linejoin="round"/>
    </symbol>

    <!-- Plant / Seedling -->
    <symbol id="icon-plant" viewBox="0 0 24 24">
      <line x1="12" y1="22" x2="12" y2="12" stroke="currentColor" stroke-width="2" stroke-linecap="round"/>
      <path d="M12 12C12 12 7 10 7 5a5 5 0 0 1 10 0c0 5-5 7-5 7z" fill="none" stroke="currentColor" stroke-width="2" stroke-linecap="round" stroke-linejoin="round"/>
      <path d="M12 17c0 0-3 1-4 3" stroke="currentColor" stroke-width="2" stroke-linecap="round"/>
    </symbol>

    <!-- Megaphone / Evangelism -->
    <symbol id="icon-megaphone" viewBox="0 0 24 24">
      <path d="M21 12V8l-9-5-9 5v9l9 5 4.5-2.5" fill="none" stroke="currentColor" stroke-width="2" stroke-linecap="round" stroke-linejoin="round"/>
      <path d="M3 8l9 5 9-5" fill="none" stroke="currentColor" stroke-width="2" stroke-linecap="round" stroke-linejoin="round"/>
      <line x1="12" y1="13" x2="12" y2="22" stroke="currentColor" stroke-width="2" stroke-linecap="round"/>
    </symbol>

    <!-- Handshake / Service -->
    <symbol id="icon-handshake" viewBox="0 0 24 24">
      <path d="M20.42 4.58a5.4 5.4 0 0 0-7.65 0l-.77.78-.77-.78a5.4 5.4 0 0 0-7.65 0C1.46 6.7 1.33 10.28 4 13l8 8 8-8c2.67-2.72 2.54-6.3.42-8.42z" fill="none" stroke="currentColor" stroke-width="2" stroke-linecap="round" stroke-linejoin="round"/>
    </symbol>


    <!-- drag-handle: 6-dot grid -->
    <symbol id="icon-drag-handle" viewBox="0 0 24 24">
      <circle cx="9" cy="7" r="1.5" fill="currentColor" stroke="none"/>
      <circle cx="15" cy="7" r="1.5" fill="currentColor" stroke="none"/>
      <circle cx="9" cy="12" r="1.5" fill="currentColor" stroke="none"/>
      <circle cx="15" cy="12" r="1.5" fill="currentColor" stroke="none"/>
      <circle cx="9" cy="17" r="1.5" fill="currentColor" stroke="none"/>
      <circle cx="15" cy="17" r="1.5" fill="currentColor" stroke="none"/>
    </symbol>

    <!-- chevron-down: downward arrow -->
    <symbol id="icon-chevron-down" viewBox="0 0 24 24">
      <polyline points="6 9 12 15 18 9" stroke="currentColor" stroke-width="2" fill="none" stroke-linecap="round" stroke-linejoin="round"/>
    </symbol>

  </defs>
</svg>
